<svg id="visual" viewBox="0 0 900 600" width="900" height="600" xmlns="http://www.w3.org/2000/svg" xmlns:xlink="http://www.w3.org/1999/xlink" version="1.1"><rect x="0" y="0" width="900" height="600" fill="#FFFFFF"></rect><path d="M564 600L569.3 585.7C574.7 571.3 585.3 542.7 589.2 514.2C593 485.7 590 457.3 584.8 428.8C579.7 400.3 572.3 371.7 574 343C575.7 314.3 586.3 285.7 598.3 257C610.3 228.3 623.7 199.7 628 171.2C632.3 142.7 627.7 114.3 617.7 85.8C607.7 57.3 592.3 28.7 584.7 14.3L577 0L900 0L900 14.3C900 28.7 900 57.3 900 85.8C900 114.3 900 142.7 900 171.2C900 199.7 900 228.3 900 257C900 285.7 900 314.3 900 343C900 371.7 900 400.3 900 428.8C900 457.3 900 485.7 900 514.2C900 542.7 900 571.3 900 585.7L900 600Z" fill="#62b3e6"></path><path d="M664 600L667.2 585.7C670.3 571.3 676.7 542.7 680 514.2C683.3 485.7 683.7 457.3 673.5 428.8C663.3 400.3 642.7 371.7 640.3 343C638 314.3 654 285.7 664.7 257C675.3 228.3 680.7 199.7 672.3 171.2C664 142.7 642 114.3 643.7 85.8C645.3 57.3 670.7 28.7 683.3 14.3L696 0L900 0L900 14.3C900 28.7 900 57.3 900 85.8C900 114.3 900 142.7 900 171.2C900 199.7 900 228.3 900 257C900 285.7 900 314.3 900 343C900 371.7 900 400.3 900 428.8C900 457.3 900 485.7 900 514.2C900 542.7 900 571.3 900 585.7L900 600Z" fill="#4fa3dc"></path><path d="M713 600L717.5 585.7C722 571.3 731 542.7 730.7 514.2C730.3 485.7 720.7 457.3 711 428.8C701.3 400.3 691.7 371.7 690.3 343C689 314.3 696 285.7 697 257C698 228.3 693 199.7 698 171.2C703 142.7 718 114.3 724.8 85.8C731.7 57.3 730.3 28.7 729.7 14.3L729 0L900 0L900 14.3C900 28.7 900 57.3 900 85.8C900 114.3 900 142.7 900 171.2C900 199.7 900 228.3 900 257C900 285.7 900 314.3 900 343C900 371.7 900 400.3 900 428.8C900 457.3 900 485.7 900 514.2C900 542.7 900 571.3 900 585.7L900 600Z" fill="#3b94d2"></path><path d="M793 600L791 585.7C789 571.3 785 542.7 777.8 514.2C770.7 485.7 760.3 457.3 754.3 428.8C748.3 400.3 746.7 371.7 752.3 343C758 314.3 771 285.7 773.7 257C776.3 228.3 768.7 199.7 769.8 171.2C771 142.7 781 114.3 780.7 85.8C780.3 57.3 769.7 28.7 764.3 14.3L759 0L900 0L900 14.3C900 28.7 900 57.3 900 85.8C900 114.3 900 142.7 900 171.2C900 199.7 900 228.3 900 257C900 285.7 900 314.3 900 343C900 371.7 900 400.3 900 428.8C900 457.3 900 485.7 900 514.2C900 542.7 900 571.3 900 585.7L900 600Z" fill="#2585c8"></path><path d="M829 600L826.8 585.7C824.7 571.3 820.3 542.7 822.5 514.2C824.7 485.7 833.3 457.3 834.3 428.8C835.3 400.3 828.7 371.7 828.5 343C828.3 314.3 834.7 285.7 835.7 257C836.7 228.3 832.3 199.7 829.2 171.2C826 142.7 824 114.3 820 85.8C816 57.3 810 28.7 807 14.3L804 0L900 0L900 14.3C900 28.7 900 57.3 900 85.8C900 114.3 900 142.7 900 171.2C900 199.7 900 228.3 900 257C900 285.7 900 314.3 900 343C900 371.7 900 400.3 900 428.8C900 457.3 900 485.7 900 514.2C900 542.7 900 571.3 900 585.7L900 600Z" fill="#0076bd"></path></svg>